<?xml version="1.0" encoding="UTF-8"?><svg id="Outline" xmlns="http://www.w3.org/2000/svg" viewBox="0 0 900 900"><defs><style>.cls-1{fill:#1be1f2;}.cls-2{fill:#09091c;}</style></defs><path class="cls-2" d="m.04.14v900h900V.14H.04Z"/><rect class="cls-1" x="180.04" y="630.14" width="270" height="30"/><path class="cls-1" d="m512.34,546.79v-2.83c15.39,19.06,38.11,32.25,70.85,32.25,65.23,0,114.58-53.5,114.58-124.6s-49.35-124.6-114.83-124.6c-31.76,0-53.99,12.46-69.38,31.03v-117.87h-63.52v329.94h38.99c12.87,0,23.31-10.44,23.31-23.31Zm58.88-160.41c37.62,0,61.08,29.07,61.08,65.23s-23.45,65.23-61.08,65.23-60.83-27.85-60.83-65.23,24.68-65.23,60.83-65.23Z"/></svg>